<?xml version="1.0" encoding="iso-8859-1"?>
<!-- Generator: Adobe Illustrator 19.0.0, SVG Export Plug-In . SVG Version: 6.00 Build 0)  -->
<svg version="1.1" id="Layer_1" xmlns="http://www.w3.org/2000/svg" xmlns:xlink="http://www.w3.org/1999/xlink" x="0px" y="0px"
	 viewBox="0 0 512 512" style="enable-background:new 0 0 512 512;" xml:space="preserve">
<g style="enable-background:new    ;">
	<polygon style="fill:#FF6342;" points="512,330.369 511.946,349.455 256.808,497.725 0,349.457 0.054,330.372 255.192,182.102 	"/>
	<polygon style="fill:#FF3502;" points="512,330.369 511.946,349.455 256.808,497.725 256.861,478.64 	"/>
	<polygon style="fill:#FF5023;" points="256.861,478.64 256.808,497.725 0,349.457 0.054,330.372 	"/>
	<polygon style="fill:#FFA834;" points="512,246.456 511.946,265.541 256.808,413.812 0,265.543 0.054,246.458 255.192,98.188 	"/>
	<polygon style="fill:#F18700;" points="512,246.456 511.946,265.541 256.808,413.812 256.861,394.727 	"/>
	<polygon style="fill:#FF9911;" points="256.861,394.727 256.808,413.812 0,265.543 0.054,246.458 	"/>
	<polygon style="fill:#A258CB;" points="512,162.542 511.946,181.627 256.808,329.898 0,181.631 0.054,162.544 255.192,14.275 	"/>
	<polygon style="fill:#7F33AD;" points="512,162.542 511.946,181.627 256.808,329.898 256.861,310.813 	"/>
	<polygon style="fill:#943EC7;" points="256.861,310.813 256.808,329.898 0,181.631 0.054,162.544 	"/>
</g>
<g>
</g>
<g>
</g>
<g>
</g>
<g>
</g>
<g>
</g>
<g>
</g>
<g>
</g>
<g>
</g>
<g>
</g>
<g>
</g>
<g>
</g>
<g>
</g>
<g>
</g>
<g>
</g>
<g>
</g>
</svg>
